<?xml version="1.0" encoding="UTF-8" standalone="no"?>
<!-- Created with Inkscape (http://www.inkscape.org/) -->

<svg
   xmlns:dc="http://purl.org/dc/elements/1.1/"
   xmlns:cc="http://creativecommons.org/ns#"
   xmlns:rdf="http://www.w3.org/1999/02/22-rdf-syntax-ns#"
   xmlns:svg="http://www.w3.org/2000/svg"
   xmlns="http://www.w3.org/2000/svg"
   version="1.1"
   width="639.97"
   height="628.78"
   id="svg3467"
   xml:space="preserve"><metadata
     id="metadata3473"><rdf:RDF><cc:Work
         rdf:about=""><dc:format>image/svg+xml</dc:format><dc:type
           rdf:resource="http://purl.org/dc/dcmitype/StillImage" /><dc:title></dc:title></cc:Work></rdf:RDF></metadata><defs
     id="defs3471" /><g
     transform="matrix(1.25,0,0,-1.25,-4.9649,632.04)"
     id="g3475"><g
       transform="matrix(0.09968,0,0,0.09968,8.8057,8.7871)"
       id="g3477"
       style="fill:#000000"><g
         transform="scale(10,10)"
         id="g3479"
         style="fill:#000000"><g
           transform="matrix(1,0,0,-1,87.9,271.15)"
           id="text3481"
           style="fill:#000000"><path
             d="m 1.1602,-8.3672 c 0,-2.8518 0.7656,-5.0838 2.2968,-6.6968 1.5313,-1.614 3.5078,-2.42 5.9297,-2.42 1.5863,0 3.0153,0.379 4.2893,1.136 1.273,0.758 2.244,1.815 2.912,3.17 0.668,1.356 1.002,2.893 1.002,4.6116 0,1.7422 -0.352,3.3008 -1.055,4.6758 -0.703,1.375 -1.699,2.416 -2.988,3.12302 -1.289,0.70703 -2.68,1.06055 -4.172,1.06055 -1.6172,0 -3.0625,-0.39063 -4.3359,-1.17188 C 3.7656,-1.6602 2.8008,-2.7266 2.1445,-4.0781 1.4883,-5.4297 1.1602,-6.8594 1.1602,-8.3672 z m 2.3437,0.035 c 0,2.0703 0.5566,3.7011 1.6699,4.8925 1.1133,1.1915 2.5098,1.7872 4.1895,1.7872 1.7107,0 3.1187,-0.6016 4.2247,-1.8047 1.105,-1.2032 1.658,-2.9102 1.658,-5.1211 0,-1.3985 -0.236,-2.6187 -0.709,-3.6617 -0.473,-1.043 -1.164,-1.852 -2.074,-2.426 -0.91,-0.574 -1.932,-0.861 -3.0646,-0.861 -1.6093,0 -2.9941,0.552 -4.1543,1.658 -1.1601,1.105 -1.7402,2.951 -1.7402,5.5368 z"
             id="path3832"
             style="font-size:24px;font-variant:normal;font-weight:normal;writing-mode:lr-tb;fill:#000000;fill-opacity:1;fill-rule:nonzero;stroke:none;font-family:Helvetica;-inkscape-font-specification:Helvetica" /><path
             d="m 20.594,0 0,-17.18 2.273,0 0,7.055 8.93,0 0,-7.055 2.273,0 0,17.18 -2.273,0 0,-8.0977 -8.93,0 0,8.0977 z"
             id="path3834"
             style="font-size:24px;font-variant:normal;font-weight:normal;writing-mode:lr-tb;fill:#000000;fill-opacity:1;fill-rule:nonzero;stroke:none;font-family:Helvetica;-inkscape-font-specification:Helvetica" /></g></g><path
         d="m 1651.5,3026 8.5,4.5 9,-4.5 30.5,-450.5 -39.5,12.5 -39,-12.5"
         id="path3485"
         style="fill:#000000;fill-opacity:1;fill-rule:nonzero;stroke:none" /><g
         transform="scale(10,10)"
         id="g3487"
         style="fill:#000000"><g
           transform="matrix(1,0,0,-1,156.65,373)"
           id="text3489"
           style="fill:#000000"><path
             d="m 1.1602,-8.3672 c 0,-2.8518 0.7656,-5.0838 2.2968,-6.6968 1.5313,-1.614 3.5078,-2.42 5.9297,-2.42 1.5863,0 3.0153,0.379 4.2893,1.136 1.273,0.758 2.244,1.815 2.912,3.17 0.668,1.356 1.002,2.893 1.002,4.6116 0,1.7422 -0.352,3.3008 -1.055,4.6758 -0.703,1.375 -1.699,2.416 -2.988,3.12302 -1.289,0.70703 -2.68,1.06055 -4.172,1.06055 -1.6172,0 -3.0625,-0.39063 -4.3359,-1.17188 C 3.7656,-1.6602 2.8008,-2.7266 2.1445,-4.0781 1.4883,-5.4297 1.1602,-6.8594 1.1602,-8.3672 z m 2.3437,0.035 c 0,2.0703 0.5566,3.7011 1.6699,4.8925 1.1133,1.1915 2.5098,1.7872 4.1895,1.7872 1.7107,0 3.1187,-0.6016 4.2247,-1.8047 1.105,-1.2032 1.658,-2.9102 1.658,-5.1211 0,-1.3985 -0.236,-2.6187 -0.709,-3.6617 -0.473,-1.043 -1.164,-1.852 -2.074,-2.426 -0.91,-0.574 -1.932,-0.861 -3.0646,-0.861 -1.6093,0 -2.9941,0.552 -4.1543,1.658 -1.1601,1.105 -1.7402,2.951 -1.7402,5.5368 z"
             id="path3837"
             style="font-size:24px;font-variant:normal;font-weight:normal;writing-mode:lr-tb;fill:#000000;fill-opacity:1;fill-rule:nonzero;stroke:none;font-family:Helvetica;-inkscape-font-specification:Helvetica" /></g></g><path
         d="m 1316.5,3219 0,10 8.5,5 335,-193.5 0,-10 -8.5,-4.5"
         id="path3493"
         style="fill:#000000;fill-opacity:1;fill-rule:nonzero;stroke:none" /><path
         d="m 1308,3621 8.5,5 8.5,-5 0,-387 -8.5,-5 -8.5,5"
         id="path3495"
         style="fill:#000000;fill-opacity:1;fill-rule:nonzero;stroke:none" /><path
         d="m 1248.5,3263.5 17,0 0,328 -17,0 0,-328 z"
         id="path3497"
         style="fill:#000000;fill-opacity:1;fill-rule:nonzero;stroke:none" /><path
         d="m 1558.5,3775.5 8.5,-15 -242,-139.5 -8.5,5 0,9.5"
         id="path3499"
         style="fill:#000000;fill-opacity:1;fill-rule:nonzero;stroke:none" /><path
         d="m 2012.5,3631 -17,-10 -242.5,140 8.5,14.5"
         id="path3501"
         style="fill:#000000;fill-opacity:1;fill-rule:nonzero;stroke:none" /><path
         d="m 2012.5,3224 -17,10 0,387 17,10"
         id="path3503"
         style="fill:#000000;fill-opacity:1;fill-rule:nonzero;stroke:none" /><path
         d="m 1669,3026 -9,4.5 0,10 335.5,193.5 17,-10"
         id="path3505"
         style="fill:#000000;fill-opacity:1;fill-rule:nonzero;stroke:none" /><path
         d="m 981.5,3025.5 -8.5,5 0,10 335,193.5 8.5,-5 0,-10"
         id="path3507"
         style="fill:#000000;fill-opacity:1;fill-rule:nonzero;stroke:none" /><path
         d="m 620.5,3224 17,10 335.5,-193.5 0,-10 -8.5,-5"
         id="path3509"
         style="fill:#000000;fill-opacity:1;fill-rule:nonzero;stroke:none" /><path
         d="m 684.5,3256 8.5,15 284,-164.5 -8.5,-14.5"
         id="path3511"
         style="fill:#000000;fill-opacity:1;fill-rule:nonzero;stroke:none" /><path
         d="m 620.5,3621 8.5,5 8.5,-5 0,-387 -17,-10"
         id="path3513"
         style="fill:#000000;fill-opacity:1;fill-rule:nonzero;stroke:none" /><path
         d="m 973,3834 0,-19.5 -335.5,-193.5 -8.5,5 0,9.5"
         id="path3515"
         style="fill:#000000;fill-opacity:1;fill-rule:nonzero;stroke:none" /><path
         d="m 968.5,3763 8.5,-15 -284,-164 -8.5,15"
         id="path3517"
         style="fill:#000000;fill-opacity:1;fill-rule:nonzero;stroke:none" /><path
         d="m 1316.5,3635.5 0,-9.5 -8.5,-5 -335,193.5 0,19.5"
         id="path3519"
         style="fill:#000000;fill-opacity:1;fill-rule:nonzero;stroke:none" /><g
         transform="scale(10,10)"
         id="g3521"
         style="fill:#000000"><g
           transform="matrix(1,0,0,-1,2.05,373)"
           id="text3523"
           style="fill:#000000"><path
             d="m 1.9219,0 0,-17.18 2.2734,0 0,7.055 8.9297,0 0,-7.055 2.273,0 0,17.18 -2.273,0 0,-8.0977 -8.9297,0 0,8.0977 z"
             id="path3840"
             style="font-size:24px;font-variant:normal;font-weight:normal;writing-mode:lr-tb;fill:#000000;fill-opacity:1;fill-rule:nonzero;stroke:none;font-family:Helvetica;-inkscape-font-specification:Helvetica" /><path
             d="m 18.488,-8.3672 c 0,-2.8518 0.766,-5.0838 2.297,-6.6968 1.531,-1.614 3.508,-2.42 5.93,-2.42 1.586,0 3.015,0.379 4.289,1.136 1.273,0.758 2.244,1.815 2.912,3.17 0.668,1.356 1.002,2.893 1.002,4.6116 0,1.7422 -0.352,3.3008 -1.055,4.6758 -0.703,1.375 -1.699,2.416 -2.988,3.12302 -1.289,0.70703 -2.68,1.06055 -4.172,1.06055 -1.617,0 -3.063,-0.39063 -4.336,-1.17188 C 21.094,-1.6602 20.129,-2.7266 19.473,-4.0781 18.816,-5.4297 18.488,-6.8594 18.488,-8.3672 z m 2.344,0.035 c 0,2.0703 0.557,3.7011 1.67,4.8925 1.113,1.1915 2.51,1.7872 4.189,1.7872 1.711,0 3.119,-0.6016 4.225,-1.8047 1.105,-1.2032 1.658,-2.9102 1.658,-5.1211 0,-1.3985 -0.236,-2.6187 -0.709,-3.6617 -0.473,-1.043 -1.164,-1.852 -2.074,-2.426 -0.91,-0.574 -1.932,-0.861 -3.065,-0.861 -1.609,0 -2.994,0.552 -4.154,1.658 -1.16,1.105 -1.74,2.951 -1.74,5.5368 z"
             id="path3842"
             style="font-size:24px;font-variant:normal;font-weight:normal;writing-mode:lr-tb;fill:#000000;fill-opacity:1;fill-rule:nonzero;stroke:none;font-family:Helvetica;-inkscape-font-specification:Helvetica" /></g></g><path
         d="m 379.5,3760 8.5,15 241,-139.5 0,-9.5 -8.5,-5"
         id="path3527"
         style="fill:#000000;fill-opacity:1;fill-rule:nonzero;stroke:none" /><path
         d="m 981.5,2908.5 -17,0 0,117 8.5,5 8.5,-5"
         id="path3529"
         style="fill:#000000;fill-opacity:1;fill-rule:nonzero;stroke:none" /><path
         d="m 2291,3836 38.5,-66.5 -15.5,-7 -36.5,63.5"
         id="path3531"
         style="fill:#000000;fill-opacity:1;fill-rule:nonzero;stroke:none" /><path
         d="m 2251,3807.5 33.5,-58 -15.5,-7.5 -32,55.5"
         id="path3533"
         style="fill:#000000;fill-opacity:1;fill-rule:nonzero;stroke:none" /><path
         d="m 2211,3779 29,-50 -15.5,-7.5 -27.5,47.5"
         id="path3535"
         style="fill:#000000;fill-opacity:1;fill-rule:nonzero;stroke:none" /><path
         d="m 2171,3750 24,-41.5 -15.5,-7.5 -22.5,39.5"
         id="path3537"
         style="fill:#000000;fill-opacity:1;fill-rule:nonzero;stroke:none" /><path
         d="m 2130.5,3721.5 19.5,-33.5 -15.5,-7 -18,30.5"
         id="path3539"
         style="fill:#000000;fill-opacity:1;fill-rule:nonzero;stroke:none" /><path
         d="m 2090.5,3693 15,-25.5 -15.5,-7 -13.5,22.5"
         id="path3541"
         style="fill:#000000;fill-opacity:1;fill-rule:nonzero;stroke:none" /><path
         d="m 2050.5,3664.5 10,-17.5 -15.5,-7 -8.5,14.5"
         id="path3543"
         style="fill:#000000;fill-opacity:1;fill-rule:nonzero;stroke:none" /><g
         transform="scale(10,10)"
         id="g3545"
         style="fill:#000000"><g
           transform="matrix(1,0,0,-1,225.35,293.65)"
           id="text3547"
           style="fill:#000000"><path
             d="m 1.1602,-8.3672 c 0,-2.8518 0.7656,-5.0838 2.2968,-6.6968 1.5313,-1.614 3.5078,-2.42 5.9297,-2.42 1.5863,0 3.0153,0.379 4.2893,1.136 1.273,0.758 2.244,1.815 2.912,3.17 0.668,1.356 1.002,2.893 1.002,4.6116 0,1.7422 -0.352,3.3008 -1.055,4.6758 -0.703,1.375 -1.699,2.416 -2.988,3.12302 -1.289,0.70703 -2.68,1.06055 -4.172,1.06055 -1.6172,0 -3.0625,-0.39063 -4.3359,-1.17188 C 3.7656,-1.6602 2.8008,-2.7266 2.1445,-4.0781 1.4883,-5.4297 1.1602,-6.8594 1.1602,-8.3672 z m 2.3437,0.035 c 0,2.0703 0.5566,3.7011 1.6699,4.8925 1.1133,1.1915 2.5098,1.7872 4.1895,1.7872 1.7107,0 3.1187,-0.6016 4.2247,-1.8047 1.105,-1.2032 1.658,-2.9102 1.658,-5.1211 0,-1.3985 -0.236,-2.6187 -0.709,-3.6617 -0.473,-1.043 -1.164,-1.852 -2.074,-2.426 -0.91,-0.574 -1.932,-0.861 -3.0646,-0.861 -1.6093,0 -2.9941,0.552 -4.1543,1.658 -1.1601,1.105 -1.7402,2.951 -1.7402,5.5368 z"
             id="path3845"
             style="font-size:24px;font-variant:normal;font-weight:normal;writing-mode:lr-tb;fill:#000000;fill-opacity:1;fill-rule:nonzero;stroke:none;font-family:Helvetica;-inkscape-font-specification:Helvetica" /><path
             d="m 20.594,0 0,-17.18 2.273,0 0,7.055 8.93,0 0,-7.055 2.273,0 0,17.18 -2.273,0 0,-8.0977 -8.93,0 0,8.0977 z"
             id="path3847"
             style="font-size:24px;font-variant:normal;font-weight:normal;writing-mode:lr-tb;fill:#000000;fill-opacity:1;fill-rule:nonzero;stroke:none;font-family:Helvetica;-inkscape-font-specification:Helvetica" /></g></g><path
         d="m 2276,3116 -38.5,-66 -13.5,10 36,63"
         id="path3551"
         style="fill:#000000;fill-opacity:1;fill-rule:nonzero;stroke:none" /><path
         d="m 2233,3134.5 -33,-56.5 -13.5,10 30.5,53.5"
         id="path3553"
         style="fill:#000000;fill-opacity:1;fill-rule:nonzero;stroke:none" /><path
         d="m 2190,3153 -27.5,-47 -13.5,10.5 25,43.5"
         id="path3555"
         style="fill:#000000;fill-opacity:1;fill-rule:nonzero;stroke:none" /><path
         d="m 2146.5,3171.5 -21.5,-37.5 -13.5,10.5 19.5,34"
         id="path3557"
         style="fill:#000000;fill-opacity:1;fill-rule:nonzero;stroke:none" /><path
         d="m 2103.5,3190 -16,-28 -13.5,10.5 14,24"
         id="path3559"
         style="fill:#000000;fill-opacity:1;fill-rule:nonzero;stroke:none" /><path
         d="m 2060.5,3208.5 -10.5,-18.5 -13.5,10.5 8.5,14.5"
         id="path3561"
         style="fill:#000000;fill-opacity:1;fill-rule:nonzero;stroke:none" /><path
         d="m 2691,3635.5 0,-19.5 -352.5,203.5 17,9.5"
         id="path3563"
         style="fill:#000000;fill-opacity:1;fill-rule:nonzero;stroke:none" /><path
         d="m 2695,3702 -8.5,-15 -284,164 8.5,15"
         id="path3565"
         style="fill:#000000;fill-opacity:1;fill-rule:nonzero;stroke:none" /><path
         d="m 3026,3829 17,-9.5 -352,-203.5 0,19.5"
         id="path3567"
         style="fill:#000000;fill-opacity:1;fill-rule:nonzero;stroke:none" /><path
         d="m 3026,4216 8.5,5 8.5,-5 0,-396.5 -17,9.5"
         id="path3569"
         style="fill:#000000;fill-opacity:1;fill-rule:nonzero;stroke:none" /><path
         d="m 2966.5,3858.5 17,0 0,328 -17,0 0,-328 z"
         id="path3571"
         style="fill:#000000;fill-opacity:1;fill-rule:nonzero;stroke:none" /><path
         d="m 2691,4409.5 0,10 8.5,5 335,-193.5 0,-10 -8.5,-5"
         id="path3573"
         style="fill:#000000;fill-opacity:1;fill-rule:nonzero;stroke:none" /><path
         d="m 2355.5,4216 -17,10 344,198.5 8.5,-5 0,-10"
         id="path3575"
         style="fill:#000000;fill-opacity:1;fill-rule:nonzero;stroke:none" /><path
         d="m 2411,4179.5 -8.5,14.5 284,164 8.5,-14.5"
         id="path3577"
         style="fill:#000000;fill-opacity:1;fill-rule:nonzero;stroke:none" /><path
         d="m 2355.5,3829 -17,-9.5 0,406.5 17,-10"
         id="path3579"
         style="fill:#000000;fill-opacity:1;fill-rule:nonzero;stroke:none" /><g
         transform="scale(10,10)"
         id="g3581"
         style="fill:#000000"><g
           transform="matrix(1,0,0,-1,328.45,432.5)"
           id="text3583"
           style="fill:#000000"><path
             d="m 1.1602,-8.3672 c 0,-2.8518 0.7656,-5.0838 2.2968,-6.6968 1.5313,-1.614 3.5078,-2.42 5.9297,-2.42 1.5863,0 3.0153,0.379 4.2893,1.136 1.273,0.758 2.244,1.815 2.912,3.17 0.668,1.356 1.002,2.893 1.002,4.6116 0,1.7422 -0.352,3.3008 -1.055,4.6758 -0.703,1.375 -1.699,2.416 -2.988,3.12302 -1.289,0.70703 -2.68,1.06055 -4.172,1.06055 -1.6172,0 -3.0625,-0.39063 -4.3359,-1.17188 C 3.7656,-1.6602 2.8008,-2.7266 2.1445,-4.0781 1.4883,-5.4297 1.1602,-6.8594 1.1602,-8.3672 z m 2.3437,0.035 c 0,2.0703 0.5566,3.7011 1.6699,4.8925 1.1133,1.1915 2.5098,1.7872 4.1895,1.7872 1.7107,0 3.1187,-0.6016 4.2247,-1.8047 1.105,-1.2032 1.658,-2.9102 1.658,-5.1211 0,-1.3985 -0.236,-2.6187 -0.709,-3.6617 -0.473,-1.043 -1.164,-1.852 -2.074,-2.426 -0.91,-0.574 -1.932,-0.861 -3.0646,-0.861 -1.6093,0 -2.9941,0.552 -4.1543,1.658 -1.1601,1.105 -1.7402,2.951 -1.7402,5.5368 z"
             id="path3850"
             style="font-size:24px;font-variant:normal;font-weight:normal;writing-mode:lr-tb;fill:#000000;fill-opacity:1;fill-rule:nonzero;stroke:none;font-family:Helvetica;-inkscape-font-specification:Helvetica" /><path
             d="m 20.594,0 0,-17.18 2.273,0 0,7.055 8.93,0 0,-7.055 2.273,0 0,17.18 -2.273,0 0,-8.0977 -8.93,0 0,8.0977 z"
             id="path3852"
             style="font-size:24px;font-variant:normal;font-weight:normal;writing-mode:lr-tb;fill:#000000;fill-opacity:1;fill-rule:nonzero;stroke:none;font-family:Helvetica;-inkscape-font-specification:Helvetica" /></g></g><path
         d="m 3276.5,4370.5 8.5,-15 -242,-139.5 -8.5,5 0,10"
         id="path3587"
         style="fill:#000000;fill-opacity:1;fill-rule:nonzero;stroke:none" /><g
         transform="scale(10,10)"
         id="g3589"
         style="fill:#000000"><g
           transform="matrix(1,0,0,-1,259.75,472.15)"
           id="text3591"
           style="fill:#000000"><path
             d="m 1.1602,-8.3672 c 0,-2.8518 0.7656,-5.0838 2.2968,-6.6968 1.5313,-1.614 3.5078,-2.42 5.9297,-2.42 1.5863,0 3.0153,0.379 4.2893,1.136 1.273,0.758 2.244,1.815 2.912,3.17 0.668,1.356 1.002,2.893 1.002,4.6116 0,1.7422 -0.352,3.3008 -1.055,4.6758 -0.703,1.375 -1.699,2.416 -2.988,3.12302 -1.289,0.70703 -2.68,1.06055 -4.172,1.06055 -1.6172,0 -3.0625,-0.39063 -4.3359,-1.17188 C 3.7656,-1.6602 2.8008,-2.7266 2.1445,-4.0781 1.4883,-5.4297 1.1602,-6.8594 1.1602,-8.3672 z m 2.3437,0.035 c 0,2.0703 0.5566,3.7011 1.6699,4.8925 1.1133,1.1915 2.5098,1.7872 4.1895,1.7872 1.7107,0 3.1187,-0.6016 4.2247,-1.8047 1.105,-1.2032 1.658,-2.9102 1.658,-5.1211 0,-1.3985 -0.236,-2.6187 -0.709,-3.6617 -0.473,-1.043 -1.164,-1.852 -2.074,-2.426 -0.91,-0.574 -1.932,-0.861 -3.0646,-0.861 -1.6093,0 -2.9941,0.552 -4.1543,1.658 -1.1601,1.105 -1.7402,2.951 -1.7402,5.5368 z"
             id="path3855"
             style="font-size:24px;font-variant:normal;font-weight:normal;writing-mode:lr-tb;fill:#000000;fill-opacity:1;fill-rule:nonzero;stroke:none;font-family:Helvetica;-inkscape-font-specification:Helvetica" /><path
             d="m 20.594,0 0,-17.18 2.273,0 0,7.055 8.93,0 0,-7.055 2.273,0 0,17.18 -2.273,0 0,-8.0977 -8.93,0 0,8.0977 z"
             id="path3857"
             style="font-size:24px;font-variant:normal;font-weight:normal;writing-mode:lr-tb;fill:#000000;fill-opacity:1;fill-rule:nonzero;stroke:none;font-family:Helvetica;-inkscape-font-specification:Helvetica" /></g></g><path
         d="m 2682.5,4696.5 17,0 0,-272 -8.5,-5 -8.5,5"
         id="path3595"
         style="fill:#000000;fill-opacity:1;fill-rule:nonzero;stroke:none" /><path
         d="m 1325,2384.5 -8.5,5 0,10 304.5,176 39,12.5 0,-9.5"
         id="path3597"
         style="fill:#000000;fill-opacity:1;fill-rule:nonzero;stroke:none" /><path
         d="m 1380,2348 -8.5,14.5 284.5,164 8.5,-14.5"
         id="path3599"
         style="fill:#000000;fill-opacity:1;fill-rule:nonzero;stroke:none" /><path
         d="m 1325,1997.5 -17,-9.5 0,397 8.5,4.5 8.5,-5"
         id="path3601"
         style="fill:#000000;fill-opacity:1;fill-rule:nonzero;stroke:none" /><path
         d="m 1660,1804 0,-9.5 -8.5,-5 -343.5,198.5 17,9.5"
         id="path3603"
         style="fill:#000000;fill-opacity:1;fill-rule:nonzero;stroke:none" /><path
         d="m 1664.5,1870.5 -8.5,-15 -284.5,164.5 8.5,14.5"
         id="path3605"
         style="fill:#000000;fill-opacity:1;fill-rule:nonzero;stroke:none" /><path
         d="m 1995.5,1997.5 8.5,-4.5 0,-10 -335.5,-193.5 -8.5,5 0,9.5"
         id="path3607"
         style="fill:#000000;fill-opacity:1;fill-rule:nonzero;stroke:none" /><path
         d="m 1995.5,2384.5 8.5,5 8.5,-5 0,-387 -8.5,-4.5 -8.5,4.5"
         id="path3609"
         style="fill:#000000;fill-opacity:1;fill-rule:nonzero;stroke:none" /><path
         d="m 1936,2027 17,0 0,328.5 -17,0 0,-328.5 z"
         id="path3611"
         style="fill:#000000;fill-opacity:1;fill-rule:nonzero;stroke:none" /><path
         d="m 1660,2578.5 0,9.5 39.5,-12.5 304.5,-176 0,-10 -8.5,-5"
         id="path3613"
         style="fill:#000000;fill-opacity:1;fill-rule:nonzero;stroke:none" /><g
         transform="scale(10,10)"
         id="g3615"
         style="fill:#000000"><g
           transform="matrix(1,0,0,-1,225.4,249.4)"
           id="text3617"
           style="fill:#000000"><path
             d="m 1.1602,-8.3672 c 0,-2.8518 0.7656,-5.0838 2.2968,-6.6968 1.5313,-1.614 3.5078,-2.42 5.9297,-2.42 1.5863,0 3.0153,0.379 4.2893,1.136 1.273,0.758 2.244,1.815 2.912,3.17 0.668,1.356 1.002,2.893 1.002,4.6116 0,1.7422 -0.352,3.3008 -1.055,4.6758 -0.703,1.375 -1.699,2.416 -2.988,3.12302 -1.289,0.70703 -2.68,1.06055 -4.172,1.06055 -1.6172,0 -3.0625,-0.39063 -4.3359,-1.17188 C 3.7656,-1.6602 2.8008,-2.7266 2.1445,-4.0781 1.4883,-5.4297 1.1602,-6.8594 1.1602,-8.3672 z m 2.3437,0.035 c 0,2.0703 0.5566,3.7011 1.6699,4.8925 1.1133,1.1915 2.5098,1.7872 4.1895,1.7872 1.7107,0 3.1187,-0.6016 4.2247,-1.8047 1.105,-1.2032 1.658,-2.9102 1.658,-5.1211 0,-1.3985 -0.236,-2.6187 -0.709,-3.6617 -0.473,-1.043 -1.164,-1.852 -2.074,-2.426 -0.91,-0.574 -1.932,-0.861 -3.0646,-0.861 -1.6093,0 -2.9941,0.552 -4.1543,1.658 -1.1601,1.105 -1.7402,2.951 -1.7402,5.5368 z"
             id="path3860"
             style="font-size:24px;font-variant:normal;font-weight:normal;writing-mode:lr-tb;fill:#000000;fill-opacity:1;fill-rule:nonzero;stroke:none;font-family:Helvetica;-inkscape-font-specification:Helvetica" /></g></g><path
         d="m 2347.5,1804 0,-9.5 -9,-5 -334.5,193.5 0,10 8.5,4.5"
         id="path3621"
         style="fill:#000000;fill-opacity:1;fill-rule:nonzero;stroke:none" /><path
         d="m 2682.5,1997.5 17,-9.5 -343,-198.5 -9,5 0,9.5"
         id="path3623"
         style="fill:#000000;fill-opacity:1;fill-rule:nonzero;stroke:none" /><path
         d="m 2682.5,2384.5 17,10 0,-406.5 -17,9.5"
         id="path3625"
         style="fill:#000000;fill-opacity:1;fill-rule:nonzero;stroke:none" /><path
         d="m 2440.5,2524.5 8.5,15 250.5,-145 -17,-10"
         id="path3627"
         style="fill:#000000;fill-opacity:1;fill-rule:nonzero;stroke:none" /><path
         d="m 2012.5,2384.5 -8.5,5 0,10 242,139.5 8.5,-14.5"
         id="path3629"
         style="fill:#000000;fill-opacity:1;fill-rule:nonzero;stroke:none" /><path
         d="m 2978.5,2600 38.5,-66.5 -15.5,-7 -37,63.5"
         id="path3631"
         style="fill:#000000;fill-opacity:1;fill-rule:nonzero;stroke:none" /><path
         d="m 2938.5,2571 33.5,-58 -15.5,-7 -32,55.5"
         id="path3633"
         style="fill:#000000;fill-opacity:1;fill-rule:nonzero;stroke:none" /><path
         d="m 2898.5,2542.5 28.5,-50 -15.5,-7 -27,47"
         id="path3635"
         style="fill:#000000;fill-opacity:1;fill-rule:nonzero;stroke:none" /><path
         d="m 2858,2514 24.5,-42 -15.5,-7 -23,39"
         id="path3637"
         style="fill:#000000;fill-opacity:1;fill-rule:nonzero;stroke:none" /><path
         d="m 2818,2485.5 19.5,-34 -15.5,-7 -18,31"
         id="path3639"
         style="fill:#000000;fill-opacity:1;fill-rule:nonzero;stroke:none" /><path
         d="m 2778,2457 14.5,-26 -15.5,-7 -13,23"
         id="path3641"
         style="fill:#000000;fill-opacity:1;fill-rule:nonzero;stroke:none" /><path
         d="m 2737.5,2428 10.5,-17.5 -15.5,-7 -9,15"
         id="path3643"
         style="fill:#000000;fill-opacity:1;fill-rule:nonzero;stroke:none" /><g
         transform="scale(10,10)"
         id="g3645"
         style="fill:#000000"><g
           transform="matrix(1,0,0,-1,294.1,170.05)"
           id="text3647"
           style="fill:#000000"><path
             d="m 1.1602,-8.3672 c 0,-2.8518 0.7656,-5.0838 2.2968,-6.6968 1.5313,-1.614 3.5078,-2.42 5.9297,-2.42 1.5863,0 3.0153,0.379 4.2893,1.136 1.273,0.758 2.244,1.815 2.912,3.17 0.668,1.356 1.002,2.893 1.002,4.6116 0,1.7422 -0.352,3.3008 -1.055,4.6758 -0.703,1.375 -1.699,2.416 -2.988,3.12302 -1.289,0.70703 -2.68,1.06055 -4.172,1.06055 -1.6172,0 -3.0625,-0.39063 -4.3359,-1.17188 C 3.7656,-1.6602 2.8008,-2.7266 2.1445,-4.0781 1.4883,-5.4297 1.1602,-6.8594 1.1602,-8.3672 z m 2.3437,0.035 c 0,2.0703 0.5566,3.7011 1.6699,4.8925 1.1133,1.1915 2.5098,1.7872 4.1895,1.7872 1.7107,0 3.1187,-0.6016 4.2247,-1.8047 1.105,-1.2032 1.658,-2.9102 1.658,-5.1211 0,-1.3985 -0.236,-2.6187 -0.709,-3.6617 -0.473,-1.043 -1.164,-1.852 -2.074,-2.426 -0.91,-0.574 -1.932,-0.861 -3.0646,-0.861 -1.6093,0 -2.9941,0.552 -4.1543,1.658 -1.1601,1.105 -1.7402,2.951 -1.7402,5.5368 z"
             id="path3863"
             style="font-size:24px;font-variant:normal;font-weight:normal;writing-mode:lr-tb;fill:#000000;fill-opacity:1;fill-rule:nonzero;stroke:none;font-family:Helvetica;-inkscape-font-specification:Helvetica" /><path
             d="m 20.594,0 0,-17.18 2.273,0 0,7.055 8.93,0 0,-7.055 2.273,0 0,17.18 -2.273,0 0,-8.0977 -8.93,0 0,8.0977 z"
             id="path3865"
             style="font-size:24px;font-variant:normal;font-weight:normal;writing-mode:lr-tb;fill:#000000;fill-opacity:1;fill-rule:nonzero;stroke:none;font-family:Helvetica;-inkscape-font-specification:Helvetica" /></g></g><path
         d="m 2963,1880 -38,-66.5 -13.5,10.5 36,62.5"
         id="path3651"
         style="fill:#000000;fill-opacity:1;fill-rule:nonzero;stroke:none" /><path
         d="m 2920,1898.5 -32.5,-57 -13.5,10.5 30.5,53"
         id="path3653"
         style="fill:#000000;fill-opacity:1;fill-rule:nonzero;stroke:none" /><path
         d="m 2877,1917 -27,-47.5 -13.5,10.5 25,43.5"
         id="path3655"
         style="fill:#000000;fill-opacity:1;fill-rule:nonzero;stroke:none" /><path
         d="m 2834,1935 -21.5,-37 -13.5,10 19.5,34"
         id="path3657"
         style="fill:#000000;fill-opacity:1;fill-rule:nonzero;stroke:none" /><path
         d="m 2791,1953.5 -16,-27.5 -13.5,10 14,24.5"
         id="path3659"
         style="fill:#000000;fill-opacity:1;fill-rule:nonzero;stroke:none" /><path
         d="m 2748,1972 -10.5,-18 -13.5,10 8.5,15"
         id="path3661"
         style="fill:#000000;fill-opacity:1;fill-rule:nonzero;stroke:none" /><path
         d="m 2386.5,1300.5 -39,13 -39,-13 30,489 9,5 9,-5"
         id="path3663"
         style="fill:#000000;fill-opacity:1;fill-rule:nonzero;stroke:none" /><path
         d="m 3378,2399.5 0,-20 -352,203.5 17,10"
         id="path3665"
         style="fill:#000000;fill-opacity:1;fill-rule:nonzero;stroke:none" /><path
         d="m 3382.5,2465.5 -8.5,-14.5 -284,164 8.5,14.5"
         id="path3667"
         style="fill:#000000;fill-opacity:1;fill-rule:nonzero;stroke:none" /><path
         d="m 3713.5,2593 17,-10 -352.5,-203.5 0,20"
         id="path3669"
         style="fill:#000000;fill-opacity:1;fill-rule:nonzero;stroke:none" /><path
         d="m 3713.5,2980 8.5,4.5 8.5,-4.5 0,-397 -17,10"
         id="path3671"
         style="fill:#000000;fill-opacity:1;fill-rule:nonzero;stroke:none" /><path
         d="m 3654,2622.5 17,0 0,328 -17,0 0,-328 z"
         id="path3673"
         style="fill:#000000;fill-opacity:1;fill-rule:nonzero;stroke:none" /><path
         d="m 3378,3173.5 0,9.5 8.5,5 335.5,-193.5 0,-10 -8.5,-4.5"
         id="path3675"
         style="fill:#000000;fill-opacity:1;fill-rule:nonzero;stroke:none" /><path
         d="m 3043,2980 -17,9.5 343.5,198.5 8.5,-5 0,-9.5"
         id="path3677"
         style="fill:#000000;fill-opacity:1;fill-rule:nonzero;stroke:none" /><path
         d="m 3098.5,2943 -8.5,14.5 284,164.5 8.5,-15"
         id="path3679"
         style="fill:#000000;fill-opacity:1;fill-rule:nonzero;stroke:none" /><path
         d="m 3043,2593 -17,-10 0,406.5 17,-9.5"
         id="path3681"
         style="fill:#000000;fill-opacity:1;fill-rule:nonzero;stroke:none" /><g
         transform="scale(10,10)"
         id="g3683"
         style="fill:#000000"><g
           transform="matrix(1,0,0,-1,328.45,348.55)"
           id="text3685"
           style="fill:#000000"><path
             d="m 1.1602,-8.3672 c 0,-2.8518 0.7656,-5.0838 2.2968,-6.6968 1.5313,-1.614 3.5078,-2.42 5.9297,-2.42 1.5863,0 3.0153,0.379 4.2893,1.136 1.273,0.758 2.244,1.815 2.912,3.17 0.668,1.356 1.002,2.893 1.002,4.6116 0,1.7422 -0.352,3.3008 -1.055,4.6758 -0.703,1.375 -1.699,2.416 -2.988,3.12302 -1.289,0.70703 -2.68,1.06055 -4.172,1.06055 -1.6172,0 -3.0625,-0.39063 -4.3359,-1.17188 C 3.7656,-1.6602 2.8008,-2.7266 2.1445,-4.0781 1.4883,-5.4297 1.1602,-6.8594 1.1602,-8.3672 z m 2.3437,0.035 c 0,2.0703 0.5566,3.7011 1.6699,4.8925 1.1133,1.1915 2.5098,1.7872 4.1895,1.7872 1.7107,0 3.1187,-0.6016 4.2247,-1.8047 1.105,-1.2032 1.658,-2.9102 1.658,-5.1211 0,-1.3985 -0.236,-2.6187 -0.709,-3.6617 -0.473,-1.043 -1.164,-1.852 -2.074,-2.426 -0.91,-0.574 -1.932,-0.861 -3.0646,-0.861 -1.6093,0 -2.9941,0.552 -4.1543,1.658 -1.1601,1.105 -1.7402,2.951 -1.7402,5.5368 z"
             id="path3868"
             style="font-size:24px;font-variant:normal;font-weight:normal;writing-mode:lr-tb;fill:#000000;fill-opacity:1;fill-rule:nonzero;stroke:none;font-family:Helvetica;-inkscape-font-specification:Helvetica" /><path
             d="m 20.594,0 0,-17.18 2.273,0 0,7.055 8.93,0 0,-7.055 2.273,0 0,17.18 -2.273,0 0,-8.0977 -8.93,0 0,8.0977 z"
             id="path3870"
             style="font-size:24px;font-variant:normal;font-weight:normal;writing-mode:lr-tb;fill:#000000;fill-opacity:1;fill-rule:nonzero;stroke:none;font-family:Helvetica;-inkscape-font-specification:Helvetica" /></g></g><path
         d="m 3369.5,3460 17,0 0,-272 -8.5,-5 -8.5,5"
         id="path3689"
         style="fill:#000000;fill-opacity:1;fill-rule:nonzero;stroke:none" /><g
         transform="scale(10,10)"
         id="g3691"
         style="fill:#000000"><g
           transform="matrix(1,0,0,-1,397.15,308.85)"
           id="text3693"
           style="fill:#000000"><path
             d="m 1.1602,-8.3672 c 0,-2.8518 0.7656,-5.0838 2.2968,-6.6968 1.5313,-1.614 3.5078,-2.42 5.9297,-2.42 1.5863,0 3.0153,0.379 4.2893,1.136 1.273,0.758 2.244,1.815 2.912,3.17 0.668,1.356 1.002,2.893 1.002,4.6116 0,1.7422 -0.352,3.3008 -1.055,4.6758 -0.703,1.375 -1.699,2.416 -2.988,3.12302 -1.289,0.70703 -2.68,1.06055 -4.172,1.06055 -1.6172,0 -3.0625,-0.39063 -4.3359,-1.17188 C 3.7656,-1.6602 2.8008,-2.7266 2.1445,-4.0781 1.4883,-5.4297 1.1602,-6.8594 1.1602,-8.3672 z m 2.3437,0.035 c 0,2.0703 0.5566,3.7011 1.6699,4.8925 1.1133,1.1915 2.5098,1.7872 4.1895,1.7872 1.7107,0 3.1187,-0.6016 4.2247,-1.8047 1.105,-1.2032 1.658,-2.9102 1.658,-5.1211 0,-1.3985 -0.236,-2.6187 -0.709,-3.6617 -0.473,-1.043 -1.164,-1.852 -2.074,-2.426 -0.91,-0.574 -1.932,-0.861 -3.0646,-0.861 -1.6093,0 -2.9941,0.552 -4.1543,1.658 -1.1601,1.105 -1.7402,2.951 -1.7402,5.5368 z"
             id="path3873"
             style="font-size:24px;font-variant:normal;font-weight:normal;writing-mode:lr-tb;fill:#000000;fill-opacity:1;fill-rule:nonzero;stroke:none;font-family:Helvetica;-inkscape-font-specification:Helvetica" /><path
             d="m 20.594,0 0,-17.18 2.273,0 0,7.055 8.93,0 0,-7.055 2.273,0 0,17.18 -2.273,0 0,-8.0977 -8.93,0 0,8.0977 z"
             id="path3875"
             style="font-size:24px;font-variant:normal;font-weight:normal;writing-mode:lr-tb;fill:#000000;fill-opacity:1;fill-rule:nonzero;stroke:none;font-family:Helvetica;-inkscape-font-specification:Helvetica" /></g></g><path
         d="m 3963.5,3134 8.5,-14.5 -241.5,-139.5 -8.5,4.5 0,10"
         id="path3697"
         style="fill:#000000;fill-opacity:1;fill-rule:nonzero;stroke:none" /><g
         transform="scale(10,10)"
         id="g3699"
         style="fill:#000000"><g
           transform="matrix(1,0,0,-1,83.05,242.45)"
           id="text3701"
           style="fill:#000000"><path
             d="m 1.9219,0 0,-17.18 2.2734,0 0,7.055 8.9297,0 0,-7.055 2.273,0 0,17.18 -2.273,0 0,-8.0977 -8.9297,0 0,8.0977 z"
             id="path3878"
             style="font-size:24px;font-variant:normal;font-weight:normal;writing-mode:lr-tb;fill:#000000;fill-opacity:1;fill-rule:nonzero;stroke:none;font-family:Helvetica;-inkscape-font-specification:Helvetica" /><path
             d="m 18.488,-8.3672 c 0,-2.8518 0.766,-5.0838 2.297,-6.6968 1.531,-1.614 3.508,-2.42 5.93,-2.42 1.586,0 3.015,0.379 4.289,1.136 1.273,0.758 2.244,1.815 2.912,3.17 0.668,1.356 1.002,2.893 1.002,4.6116 0,1.7422 -0.352,3.3008 -1.055,4.6758 -0.703,1.375 -1.699,2.416 -2.988,3.12302 -1.289,0.70703 -2.68,1.06055 -4.172,1.06055 -1.617,0 -3.063,-0.39063 -4.336,-1.17188 C 21.094,-1.6602 20.129,-2.7266 19.473,-4.0781 18.816,-5.4297 18.488,-6.8594 18.488,-8.3672 z m 2.344,0.035 c 0,2.0703 0.557,3.7011 1.67,4.8925 1.113,1.1915 2.51,1.7872 4.189,1.7872 1.711,0 3.119,-0.6016 4.225,-1.8047 1.105,-1.2032 1.658,-2.9102 1.658,-5.1211 0,-1.3985 -0.236,-2.6187 -0.709,-3.6617 -0.473,-1.043 -1.164,-1.852 -2.074,-2.426 -0.91,-0.574 -1.932,-0.861 -3.065,-0.861 -1.609,0 -2.994,0.552 -4.154,1.658 -1.16,1.105 -1.74,2.951 -1.74,5.5368 z"
             id="path3880"
             style="font-size:24px;font-variant:normal;font-weight:normal;writing-mode:lr-tb;fill:#000000;fill-opacity:1;fill-rule:nonzero;stroke:none;font-family:Helvetica;-inkscape-font-specification:Helvetica" /></g></g><path
         d="m 1189.5,2454 8.5,15 118.5,-69.5 0,-10 -8.5,-4.5"
         id="path3705"
         style="fill:#000000;fill-opacity:1;fill-rule:nonzero;stroke:none" /><path
         d="m 2012.5,1110 -8.5,5 0,10 304.5,175.5 39,13 0,-10"
         id="path3707"
         style="fill:#000000;fill-opacity:1;fill-rule:nonzero;stroke:none" /><path
         d="m 2067.5,1073.5 -8.5,14.5 284,164 8.5,-14.5"
         id="path3709"
         style="fill:#000000;fill-opacity:1;fill-rule:nonzero;stroke:none" /><path
         d="m 2012.5,723 -17,-10 0,397 8.5,5 8.5,-5"
         id="path3711"
         style="fill:#000000;fill-opacity:1;fill-rule:nonzero;stroke:none" /><path
         d="m 2347.5,529.5 0,-10 -8.5,-4.5 -343.5,198 17,10"
         id="path3713"
         style="fill:#000000;fill-opacity:1;fill-rule:nonzero;stroke:none" /><path
         d="m 2351.5,596 -8.5,-15 -284,164 8.5,15"
         id="path3715"
         style="fill:#000000;fill-opacity:1;fill-rule:nonzero;stroke:none" /><path
         d="m 2682.5,723 8.5,-5 0,-9.5 -335,-193.5 -8.5,4.5 0,10"
         id="path3717"
         style="fill:#000000;fill-opacity:1;fill-rule:nonzero;stroke:none" /><path
         d="m 2682.5,1110 8.5,5 8.5,-5 0,-387 -8.5,-5 -8.5,5"
         id="path3719"
         style="fill:#000000;fill-opacity:1;fill-rule:nonzero;stroke:none" /><path
         d="m 2623,752.5 17,0 0,328 -17,0 0,-328 z"
         id="path3721"
         style="fill:#000000;fill-opacity:1;fill-rule:nonzero;stroke:none" /><path
         d="m 2347.5,1303.5 0,10 39,-13 304.5,-175.5 0,-10 -8.5,-5"
         id="path3723"
         style="fill:#000000;fill-opacity:1;fill-rule:nonzero;stroke:none" /><g
         transform="scale(10,10)"
         id="g3725"
         style="fill:#000000"><g
           transform="matrix(1,0,0,-1,294.15,121.95)"
           id="text3727"
           style="fill:#000000"><path
             d="m 1.1577,-8.3498 c 0,-2.8452 0.7641,-5.0732 2.2921,-6.6832 1.5281,-1.61 3.5005,-2.415 5.9174,-2.415 1.5828,0 3.0088,0.378 4.2798,1.134 1.271,0.757 2.24,1.811 2.906,3.164 0.667,1.352 1,2.886 1,4.6014 0,1.7386 -0.351,3.294 -1.052,4.6661 -0.702,1.3721 -1.696,2.411 -2.982,3.11652 -1.287,0.70556 -2.674,1.05834 -4.1635,1.05834 -1.6139,0 -3.0562,-0.38981 -4.3269,-1.16944 C 3.7578,-1.6567 2.7949,-2.7209 2.1401,-4.0696 1.4852,-5.4184 1.1577,-6.8451 1.1577,-8.3498 z m 2.3389,0.035 c 0,2.066 0.5555,3.6935 1.6664,4.8824 1.111,1.1889 2.5046,1.7834 4.1808,1.7834 1.7072,0 3.1122,-0.6003 4.2162,-1.8009 1.103,-1.2006 1.654,-2.9041 1.654,-5.1105 0,-1.3955 -0.236,-2.6136 -0.707,-3.6546 -0.472,-1.041 -1.162,-1.847 -2.07,-2.42 -0.908,-0.573 -1.928,-0.86 -3.0581,-0.86 -1.6061,0 -2.988,0.552 -4.1457,1.655 -1.1577,1.103 -1.7366,2.945 -1.7366,5.5252 z"
             id="path3883"
             style="font-size:23.95px;font-variant:normal;font-weight:normal;writing-mode:lr-tb;fill:#000000;fill-opacity:1;fill-rule:nonzero;stroke:none;font-family:Helvetica;-inkscape-font-specification:Helvetica" /></g></g><path
         d="m 3035,529.5 0,-19.5 -344,198.5 0,9.5 8.5,5"
         id="path3731"
         style="fill:#000000;fill-opacity:1;fill-rule:nonzero;stroke:none" /><path
         d="m 3370,723 17,-10 -352,-203 0,19.5"
         id="path3733"
         style="fill:#000000;fill-opacity:1;fill-rule:nonzero;stroke:none" /><path
         d="m 3370,1110 17,10 0,-407 -17,10"
         id="path3735"
         style="fill:#000000;fill-opacity:1;fill-rule:nonzero;stroke:none" /><path
         d="m 3128,1249.5 8.5,15 250.5,-144.5 -17,-10"
         id="path3737"
         style="fill:#000000;fill-opacity:1;fill-rule:nonzero;stroke:none" /><path
         d="m 2699.5,1110 -8.5,5 0,10 242.5,139.5 8.5,-14.5"
         id="path3739"
         style="fill:#000000;fill-opacity:1;fill-rule:nonzero;stroke:none" /><path
         d="m 3666,1325 38,-66 -15.5,-7.5 -36.5,63.5"
         id="path3741"
         style="fill:#000000;fill-opacity:1;fill-rule:nonzero;stroke:none" /><path
         d="m 3626,1296.5 33.5,-58 -15.5,-7 -32,55"
         id="path3743"
         style="fill:#000000;fill-opacity:1;fill-rule:nonzero;stroke:none" /><path
         d="m 3585.5,1268 29,-50 -15.5,-7 -27.5,47"
         id="path3745"
         style="fill:#000000;fill-opacity:1;fill-rule:nonzero;stroke:none" /><path
         d="m 3545.5,1239.5 24,-42 -15.5,-7 -22.5,39"
         id="path3747"
         style="fill:#000000;fill-opacity:1;fill-rule:nonzero;stroke:none" /><path
         d="m 3505.5,1210.5 19.5,-33.5 -15.5,-7 -18,31"
         id="path3749"
         style="fill:#000000;fill-opacity:1;fill-rule:nonzero;stroke:none" /><path
         d="m 3465,1182 15,-25.5 -15.5,-7 -13,22.5"
         id="path3751"
         style="fill:#000000;fill-opacity:1;fill-rule:nonzero;stroke:none" /><path
         d="m 3425,1153.5 10,-17.5 -15.5,-7 -8.5,14.5"
         id="path3753"
         style="fill:#000000;fill-opacity:1;fill-rule:nonzero;stroke:none" /><g
         transform="scale(10,10)"
         id="g3755"
         style="fill:#000000"><g
           transform="matrix(1,0,0,-1,362.85,42.6)"
           id="text3757"
           style="fill:#000000"><path
             d="m 1.1577,-8.3498 c 0,-2.8452 0.7641,-5.0732 2.2921,-6.6832 1.5281,-1.61 3.5005,-2.415 5.9174,-2.415 1.5828,0 3.0088,0.378 4.2798,1.134 1.271,0.757 2.24,1.811 2.906,3.164 0.667,1.352 1,2.886 1,4.6014 0,1.7386 -0.351,3.294 -1.052,4.6661 -0.702,1.3721 -1.696,2.411 -2.982,3.11652 -1.287,0.70556 -2.674,1.05834 -4.1635,1.05834 -1.6139,0 -3.0562,-0.38981 -4.3269,-1.16944 C 3.7578,-1.6567 2.7949,-2.7209 2.1401,-4.0696 1.4852,-5.4184 1.1577,-6.8451 1.1577,-8.3498 z m 2.3389,0.035 c 0,2.066 0.5555,3.6935 1.6664,4.8824 1.111,1.1889 2.5046,1.7834 4.1808,1.7834 1.7072,0 3.1122,-0.6003 4.2162,-1.8009 1.103,-1.2006 1.654,-2.9041 1.654,-5.1105 0,-1.3955 -0.236,-2.6136 -0.707,-3.6546 -0.472,-1.041 -1.162,-1.847 -2.07,-2.42 -0.908,-0.573 -1.928,-0.86 -3.0581,-0.86 -1.6061,0 -2.988,0.552 -4.1457,1.655 -1.1577,1.103 -1.7366,2.945 -1.7366,5.5252 z"
             id="path3886"
             style="font-size:23.95px;font-variant:normal;font-weight:normal;writing-mode:lr-tb;fill:#000000;fill-opacity:1;fill-rule:nonzero;stroke:none;font-family:Helvetica;-inkscape-font-specification:Helvetica" /><path
             d="m 20.551,0 0,-17.144 2.269,0 0,7.04 8.911,0 0,-7.04 2.268,0 0,17.144 -2.268,0 0,-8.0808 -8.911,0 0,8.0808 z"
             id="path3888"
             style="font-size:23.95px;font-variant:normal;font-weight:normal;writing-mode:lr-tb;fill:#000000;fill-opacity:1;fill-rule:nonzero;stroke:none;font-family:Helvetica;-inkscape-font-specification:Helvetica" /></g></g><path
         d="m 3651,605 -38.5,-66 -13.5,10 36,63"
         id="path3761"
         style="fill:#000000;fill-opacity:1;fill-rule:nonzero;stroke:none" /><path
         d="m 3608,623.5 -33,-56.5 -13.5,10 30.5,53.5"
         id="path3763"
         style="fill:#000000;fill-opacity:1;fill-rule:nonzero;stroke:none" /><path
         d="m 3564.5,642 -27,-47 -13.5,10 25,44"
         id="path3765"
         style="fill:#000000;fill-opacity:1;fill-rule:nonzero;stroke:none" /><path
         d="M 3521.5,660.5 3500,623 l -14,10.5 20,34"
         id="path3767"
         style="fill:#000000;fill-opacity:1;fill-rule:nonzero;stroke:none" /><path
         d="m 3478.5,679 -16,-28 -14,10.5 14.5,24"
         id="path3769"
         style="fill:#000000;fill-opacity:1;fill-rule:nonzero;stroke:none" /><path
         d="M 3435.5,697.5 3425,679 l -14,10.5 8.5,14.5"
         id="path3771"
         style="fill:#000000;fill-opacity:1;fill-rule:nonzero;stroke:none" /><path
         d="m 4065.5,1124.5 0,-19.5 -352,203.5 17,9.5"
         id="path3773"
         style="fill:#000000;fill-opacity:1;fill-rule:nonzero;stroke:none" /><path
         d="m 4070,1191 -8.5,-15 -284.5,164 8.5,15"
         id="path3775"
         style="fill:#000000;fill-opacity:1;fill-rule:nonzero;stroke:none" /><path
         d="m 4401,1318 17,-9.5 -352.5,-203.5 0,19.5"
         id="path3777"
         style="fill:#000000;fill-opacity:1;fill-rule:nonzero;stroke:none" /><path
         d="m 4401,1705 8.5,5 8.5,-5 0,-396.5 -17,9.5"
         id="path3779"
         style="fill:#000000;fill-opacity:1;fill-rule:nonzero;stroke:none" /><path
         d="m 4341.5,1347.5 17,0 0,328 -17,0 0,-328 z"
         id="path3781"
         style="fill:#000000;fill-opacity:1;fill-rule:nonzero;stroke:none" /><path
         d="m 4065.5,1898.5 0,10 8.5,5 335.5,-193.5 0,-10 -8.5,-5"
         id="path3783"
         style="fill:#000000;fill-opacity:1;fill-rule:nonzero;stroke:none" /><path
         d="m 3730.5,1705 -17,10 343.5,198.5 8.5,-5 0,-10"
         id="path3785"
         style="fill:#000000;fill-opacity:1;fill-rule:nonzero;stroke:none" /><path
         d="m 3785.5,1668.5 -8.5,14.5 284.5,164 8.5,-14.5"
         id="path3787"
         style="fill:#000000;fill-opacity:1;fill-rule:nonzero;stroke:none" /><path
         d="m 3730.5,1318 -17,-9.5 0,406.5 17,-10"
         id="path3789"
         style="fill:#000000;fill-opacity:1;fill-rule:nonzero;stroke:none" /><g
         transform="scale(10,10)"
         id="g3791"
         style="fill:#000000"><g
           transform="matrix(1,0,0,-1,397.25,221.1)"
           id="text3793"
           style="fill:#000000"><path
             d="m 1.1577,-8.3498 c 0,-2.8452 0.7641,-5.0732 2.2921,-6.6832 1.5281,-1.61 3.5005,-2.415 5.9174,-2.415 1.5828,0 3.0088,0.378 4.2798,1.134 1.271,0.757 2.24,1.811 2.906,3.164 0.667,1.352 1,2.886 1,4.6014 0,1.7386 -0.351,3.294 -1.052,4.6661 -0.702,1.3721 -1.696,2.411 -2.982,3.11652 -1.287,0.70556 -2.674,1.05834 -4.1635,1.05834 -1.6139,0 -3.0562,-0.38981 -4.3269,-1.16944 C 3.7578,-1.6567 2.7949,-2.7209 2.1401,-4.0696 1.4852,-5.4184 1.1577,-6.8451 1.1577,-8.3498 z m 2.3389,0.035 c 0,2.066 0.5555,3.6935 1.6664,4.8824 1.111,1.1889 2.5046,1.7834 4.1808,1.7834 1.7072,0 3.1122,-0.6003 4.2162,-1.8009 1.103,-1.2006 1.654,-2.9041 1.654,-5.1105 0,-1.3955 -0.236,-2.6136 -0.707,-3.6546 -0.472,-1.041 -1.162,-1.847 -2.07,-2.42 -0.908,-0.573 -1.928,-0.86 -3.0581,-0.86 -1.6061,0 -2.988,0.552 -4.1457,1.655 -1.1577,1.103 -1.7366,2.945 -1.7366,5.5252 z"
             id="path3891"
             style="font-size:23.95px;font-variant:normal;font-weight:normal;writing-mode:lr-tb;fill:#000000;fill-opacity:1;fill-rule:nonzero;stroke:none;font-family:Helvetica;-inkscape-font-specification:Helvetica" /><path
             d="m 20.551,0 0,-17.144 2.269,0 0,7.04 8.911,0 0,-7.04 2.268,0 0,17.144 -2.268,0 0,-8.0808 -8.911,0 0,8.0808 z"
             id="path3893"
             style="font-size:23.95px;font-variant:normal;font-weight:normal;writing-mode:lr-tb;fill:#000000;fill-opacity:1;fill-rule:nonzero;stroke:none;font-family:Helvetica;-inkscape-font-specification:Helvetica" /></g></g><path
         d="m 4057,2185.5 17,0 0,-272 -8.5,-5 -8.5,5"
         id="path3797"
         style="fill:#000000;fill-opacity:1;fill-rule:nonzero;stroke:none" /><g
         transform="scale(10,10)"
         id="g3799"
         style="fill:#000000"><g
           transform="matrix(1,0,0,-1,465.95,181.45)"
           id="text3801"
           style="fill:#000000"><path
             d="m 1.1577,-8.3498 c 0,-2.8452 0.7641,-5.0732 2.2921,-6.6832 1.5281,-1.61 3.5005,-2.415 5.9174,-2.415 1.5828,0 3.0088,0.378 4.2798,1.134 1.271,0.757 2.24,1.811 2.906,3.164 0.667,1.352 1,2.886 1,4.6014 0,1.7386 -0.351,3.294 -1.052,4.6661 -0.702,1.3721 -1.696,2.411 -2.982,3.11652 -1.287,0.70556 -2.674,1.05834 -4.1635,1.05834 -1.6139,0 -3.0562,-0.38981 -4.3269,-1.16944 C 3.7578,-1.6567 2.7949,-2.7209 2.1401,-4.0696 1.4852,-5.4184 1.1577,-6.8451 1.1577,-8.3498 z m 2.3389,0.035 c 0,2.066 0.5555,3.6935 1.6664,4.8824 1.111,1.1889 2.5046,1.7834 4.1808,1.7834 1.7072,0 3.1122,-0.6003 4.2162,-1.8009 1.103,-1.2006 1.654,-2.9041 1.654,-5.1105 0,-1.3955 -0.236,-2.6136 -0.707,-3.6546 -0.472,-1.041 -1.162,-1.847 -2.07,-2.42 -0.908,-0.573 -1.928,-0.86 -3.0581,-0.86 -1.6061,0 -2.988,0.552 -4.1457,1.655 -1.1577,1.103 -1.7366,2.945 -1.7366,5.5252 z"
             id="path3896"
             style="font-size:23.95px;font-variant:normal;font-weight:normal;writing-mode:lr-tb;fill:#000000;fill-opacity:1;fill-rule:nonzero;stroke:none;font-family:Helvetica;-inkscape-font-specification:Helvetica" /><path
             d="m 20.551,0 0,-17.144 2.269,0 0,7.04 8.911,0 0,-7.04 2.268,0 0,17.144 -2.268,0 0,-8.0808 -8.911,0 0,8.0808 z"
             id="path3898"
             style="font-size:23.95px;font-variant:normal;font-weight:normal;writing-mode:lr-tb;fill:#000000;fill-opacity:1;fill-rule:nonzero;stroke:none;font-family:Helvetica;-inkscape-font-specification:Helvetica" /></g></g><path
         d="m 4651,1859.5 8.5,-14.5 -241.5,-140 -8.5,5 0,10"
         id="path3805"
         style="fill:#000000;fill-opacity:1;fill-rule:nonzero;stroke:none" /><g
         transform="scale(10,10)"
         id="g3807"
         style="fill:#000000"><g
           transform="matrix(1,0,0,-1,151.9,115)"
           id="text3809"
           style="fill:#000000"><path
             d="m 1.9179,0 0,-17.144 2.2687,0 0,7.04 8.9114,0 0,-7.04 2.268,0 0,17.144 -2.268,0 0,-8.0808 -8.9114,0 0,8.0808 z"
             id="path3901"
             style="font-size:23.95px;font-variant:normal;font-weight:normal;writing-mode:lr-tb;fill:#000000;fill-opacity:1;fill-rule:nonzero;stroke:none;font-family:Helvetica;-inkscape-font-specification:Helvetica" /><path
             d="m 18.45,-8.3498 c 0,-2.8452 0.764,-5.0732 2.292,-6.6832 1.528,-1.61 3.5,-2.415 5.917,-2.415 1.583,0 3.009,0.378 4.28,1.134 1.271,0.757 2.24,1.811 2.906,3.164 0.667,1.352 1,2.886 1,4.6014 0,1.7386 -0.351,3.294 -1.052,4.6661 -0.702,1.3721 -1.696,2.411 -2.982,3.11652 -1.287,0.70556 -2.675,1.05834 -4.164,1.05834 -1.613,0 -3.056,-0.38981 -4.327,-1.16944 C 21.05,-1.6567 20.087,-2.7209 19.432,-4.0696 18.777,-5.4184 18.45,-6.8451 18.45,-8.3498 z m 2.339,0.035 c 0,2.066 0.555,3.6935 1.666,4.8824 1.111,1.1889 2.504,1.7834 4.181,1.7834 1.707,0 3.112,-0.6003 4.215,-1.8009 1.104,-1.2006 1.655,-2.9041 1.655,-5.1105 0,-1.3955 -0.236,-2.6136 -0.707,-3.6546 -0.472,-1.041 -1.162,-1.847 -2.07,-2.42 -0.908,-0.573 -1.928,-0.86 -3.058,-0.86 -1.606,0 -2.988,0.552 -4.146,1.655 -1.158,1.103 -1.736,2.945 -1.736,5.5252 z"
             id="path3903"
             style="font-size:23.95px;font-variant:normal;font-weight:normal;writing-mode:lr-tb;fill:#000000;fill-opacity:1;fill-rule:nonzero;stroke:none;font-family:Helvetica;-inkscape-font-specification:Helvetica" /></g></g><path
         d="m 1877,1179.5 8.5,14.5 118.5,-69 0,-10 -8.5,-5"
         id="path3813"
         style="fill:#000000;fill-opacity:1;fill-rule:nonzero;stroke:none" /><g
         transform="scale(10,10)"
         id="g3815"
         style="fill:#000000"><g
           transform="matrix(1,0,0,-1,225.4,2.9)"
           id="text3817"
           style="fill:#000000"><path
             d="m 1.1602,-8.3672 c 0,-2.8518 0.7656,-5.0838 2.2968,-6.6968 1.5313,-1.614 3.5078,-2.42 5.9297,-2.42 1.5863,0 3.0153,0.379 4.2893,1.136 1.273,0.758 2.244,1.815 2.912,3.17 0.668,1.356 1.002,2.893 1.002,4.6116 0,1.7422 -0.352,3.3008 -1.055,4.6758 -0.703,1.375 -1.699,2.416 -2.988,3.12302 -1.289,0.70703 -2.68,1.06055 -4.172,1.06055 -1.6172,0 -3.0625,-0.39063 -4.3359,-1.17188 C 3.7656,-1.6602 2.8008,-2.7266 2.1445,-4.0781 1.4883,-5.4297 1.1602,-6.8594 1.1602,-8.3672 z m 2.3437,0.035 c 0,2.0703 0.5566,3.7011 1.6699,4.8925 1.1133,1.1915 2.5098,1.7872 4.1895,1.7872 1.7107,0 3.1187,-0.6016 4.2247,-1.8047 1.105,-1.2032 1.658,-2.9102 1.658,-5.1211 0,-1.3985 -0.236,-2.6187 -0.709,-3.6617 -0.473,-1.043 -1.164,-1.852 -2.074,-2.426 -0.91,-0.574 -1.932,-0.861 -3.0646,-0.861 -1.6093,0 -2.9941,0.552 -4.1543,1.658 -1.1601,1.105 -1.7402,2.951 -1.7402,5.5368 z"
             id="path3906"
             style="font-size:24px;font-variant:normal;font-weight:normal;writing-mode:lr-tb;fill:#000000;fill-opacity:1;fill-rule:nonzero;stroke:none;font-family:Helvetica;-inkscape-font-specification:Helvetica" /><path
             d="m 20.594,0 0,-17.18 2.273,0 0,7.055 8.93,0 0,-7.055 2.273,0 0,17.18 -2.273,0 0,-8.0977 -8.93,0 0,8.0977 z"
             id="path3908"
             style="font-size:24px;font-variant:normal;font-weight:normal;writing-mode:lr-tb;fill:#000000;fill-opacity:1;fill-rule:nonzero;stroke:none;font-family:Helvetica;-inkscape-font-specification:Helvetica" /></g></g><path
         d="m 2356,226 -17,0 0,289 8.5,4.5 8.5,-4.5"
         id="path3821"
         style="fill:#000000;fill-opacity:1;fill-rule:nonzero;stroke:none" /><g
         transform="scale(10,10)"
         id="g3823"
         style="fill:#000000"><g
           transform="matrix(1,0,0,-1,156.65,141.9)"
           id="text3825"
           style="fill:#000000"><path
             d="m 1.1602,-8.3672 c 0,-2.8518 0.7656,-5.0838 2.2968,-6.6968 1.5313,-1.614 3.5078,-2.42 5.9297,-2.42 1.5863,0 3.0153,0.379 4.2893,1.136 1.273,0.758 2.244,1.815 2.912,3.17 0.668,1.356 1.002,2.893 1.002,4.6116 0,1.7422 -0.352,3.3008 -1.055,4.6758 -0.703,1.375 -1.699,2.416 -2.988,3.12302 -1.289,0.70703 -2.68,1.06055 -4.172,1.06055 -1.6172,0 -3.0625,-0.39063 -4.3359,-1.17188 C 3.7656,-1.6602 2.8008,-2.7266 2.1445,-4.0781 1.4883,-5.4297 1.1602,-6.8594 1.1602,-8.3672 z m 2.3437,0.035 c 0,2.0703 0.5566,3.7011 1.6699,4.8925 1.1133,1.1915 2.5098,1.7872 4.1895,1.7872 1.7107,0 3.1187,-0.6016 4.2247,-1.8047 1.105,-1.2032 1.658,-2.9102 1.658,-5.1211 0,-1.3985 -0.236,-2.6187 -0.709,-3.6617 -0.473,-1.043 -1.164,-1.852 -2.074,-2.426 -0.91,-0.574 -1.932,-0.861 -3.0646,-0.861 -1.6093,0 -2.9941,0.552 -4.1543,1.658 -1.1601,1.105 -1.7402,2.951 -1.7402,5.5368 z"
             id="path3911"
             style="font-size:24px;font-variant:normal;font-weight:normal;writing-mode:lr-tb;fill:#000000;fill-opacity:1;fill-rule:nonzero;stroke:none;font-family:Helvetica;-inkscape-font-specification:Helvetica" /><path
             d="m 20.594,0 0,-17.18 2.273,0 0,7.055 8.93,0 0,-7.055 2.273,0 0,17.18 -2.273,0 0,-8.0977 -8.93,0 0,8.0977 z"
             id="path3913"
             style="font-size:24px;font-variant:normal;font-weight:normal;writing-mode:lr-tb;fill:#000000;fill-opacity:1;fill-rule:nonzero;stroke:none;font-family:Helvetica;-inkscape-font-specification:Helvetica" /></g></g><path
         d="m 1668.5,1616 -17,0 0,173.5 8.5,5 8.5,-5"
         id="path3829"
         style="fill:#000000;fill-opacity:1;fill-rule:nonzero;stroke:none" /></g></g></svg>